<svg width="157" height="149" viewBox="0 0 157 149" fill="none" xmlns="http://www.w3.org/2000/svg">
<path d="M79 78.9434L89 76.9434L100 78.9434L98 69.9434L103 61.9437L95 60.9434L90 54.4434L84 60.9434L76 61.9437L80 69.9434L79 78.9434Z" fill="black"/>
<path d="M101 40.4442C109 40.8442 111.667 54.9439 112 61.9437C114.063 60.9594 115.892 60.4145 117.5 60.2316C128 -26.0568 6 -8.0564 24 59.5621C25.6562 59.6656 27.5034 60.3984 29.5 61.9441C30.7 43.9441 40.3333 40.1108 45 40.4442C60.3333 40.2776 93 40.0442 101 40.4442Z" fill="black"/>
<path d="M2 147.944C8.5 138.61 27 119.244 49 116.444M49 116.444C55.8333 128.944 76 137.444 93.5 116.444M49 116.444L50 109.444M93.5 116.444C97.3333 117.11 105.9 119.244 109.5 122.444C106 128.444 110 137.944 116 128.444C117.333 129.777 121.5 132.744 127.5 133.944C127 136.944 127.6 142.244 134 139.444M93.5 116.444L91.5 109.444M134 139.444L139 147.944M134 139.444L135.5 133.944L140 133.444M50 109.444C57.8333 112.61 77.1 117.044 91.5 109.444M50 109.444C44.3333 105.61 32.3 95.7441 29.5 86.9441C10.3338 86.9441 12.7983 58.8621 24 59.5621M91.5 109.444C96.1667 107.11 106.8 99.2437 112 86.4437C127.859 90.5223 133.042 58.4639 117.5 60.2316M24 59.5621C25.6562 59.6656 27.5034 60.3984 29.5 61.9441C30.7 43.9441 40.3333 40.1108 45 40.4442C60.3333 40.2776 93 40.0442 101 40.4442C109 40.8442 111.667 54.9439 112 61.9437C114.063 60.9594 115.892 60.4145 117.5 60.2316M24 59.5621C6 -8.0564 128 -26.0568 117.5 60.2316M24.5 68.9434C23.6667 70.11 22.5 73.3434 24.5 76.9434M117 69.9434C118 70.61 119.4 72.8434 117 76.4434M65.5 84.4434C67 85.4434 71.1 86.8434 75.5 84.4434M63.5 96.9434C66 97.2767 72.4 97.7434 78 96.9434M45 54.4434C47.5 52.7371 53.8 50.3483 59 54.4434M95.5 54.4434C93.8333 52.9434 88.8 50.8434 82 54.4434M121.5 122.444C122.333 123.11 124.5 124.443 126.5 124.443M79 78.9434L89 76.9434L100 78.9434L98 69.9434L103 61.9437L95 60.9434L90 54.4434L84 60.9434L76 61.9437L80 69.9434L79 78.9434Z" stroke="black" stroke-width="3"/>
<ellipse cx="52.5" cy="68.4434" rx="5.5" ry="6.5" fill="black"/>
<path d="M89 61.4434C92.6268 61.4434 95.5 64.6158 95.5 68.4434C95.5 72.2709 92.6268 75.4434 89 75.4434C85.3732 75.4434 82.5 72.2709 82.5 68.4434C82.5 64.6158 85.3732 61.4434 89 61.4434Z" fill="white" stroke="white"/>
<ellipse cx="89" cy="68.4434" rx="5" ry="5.5" fill="black"/>
<path d="M118 108.944C119.167 104.444 122.4 98.0436 126 108.444M132.5 111.943C136 108.777 142 105.143 138 115.943" stroke="black" stroke-width="3"/>
<ellipse cx="121.681" cy="114.531" rx="2.40872" ry="1.83826" transform="rotate(114.878 121.681 114.531)" fill="black"/>
<ellipse cx="132.681" cy="117.902" rx="2.40872" ry="1.83826" transform="rotate(114.878 132.681 117.902)" fill="black"/>
<circle cx="126" cy="118.943" r="2" fill="black"/>
<path d="M129.549 100.87C129.848 99.9491 131.152 99.9491 131.451 100.87L131.51 101.053C131.644 101.465 132.028 101.744 132.461 101.744H132.653C133.622 101.744 134.025 102.983 133.241 103.553L133.086 103.665C132.735 103.92 132.589 104.372 132.723 104.784L132.782 104.966C133.081 105.887 132.027 106.653 131.243 106.084L131.088 105.971C130.737 105.717 130.263 105.717 129.912 105.971L129.757 106.084C128.973 106.653 127.919 105.887 128.218 104.966L128.277 104.784C128.411 104.372 128.265 103.92 127.914 103.665L127.759 103.553C126.975 102.983 127.378 101.744 128.347 101.744H128.539C128.972 101.744 129.356 101.465 129.49 101.053L129.549 100.87Z" fill="black"/>
<path d="M116.549 94.8704C116.848 93.9491 118.152 93.9491 118.451 94.8704L118.51 95.0528C118.644 95.4648 119.028 95.7438 119.461 95.7438H119.653C120.622 95.7438 121.025 96.9834 120.241 97.5528L120.086 97.6655C119.735 97.9201 119.589 98.3715 119.723 98.7835L119.782 98.9659C120.081 99.8872 119.027 100.653 118.243 100.084L118.088 99.9712C117.737 99.7166 117.263 99.7166 116.912 99.9712L116.757 100.084C115.973 100.653 114.919 99.8872 115.218 98.9659L115.277 98.7835C115.411 98.3715 115.265 97.9201 114.914 97.6655L114.759 97.5528C113.975 96.9834 114.378 95.7438 115.347 95.7438H115.539C115.972 95.7438 116.356 95.4648 116.49 95.0528L116.549 94.8704Z" fill="black"/>
<path d="M112.549 105.87C112.848 104.949 114.152 104.949 114.451 105.87L114.51 106.053C114.644 106.465 115.028 106.744 115.461 106.744H115.653C116.622 106.744 117.025 107.983 116.241 108.553L116.086 108.665C115.735 108.92 115.589 109.372 115.723 109.784L115.782 109.966C116.081 110.887 115.027 111.653 114.243 111.084L114.088 110.971C113.737 110.717 113.263 110.717 112.912 110.971L112.757 111.084C111.973 111.653 110.919 110.887 111.218 109.966L111.277 109.784C111.411 109.372 111.265 108.92 110.914 108.665L110.759 108.553C109.975 107.983 110.378 106.744 111.347 106.744H111.539C111.972 106.744 112.356 106.465 112.49 106.053L112.549 105.87Z" fill="black"/>
<path d="M110.549 112.87C110.848 111.949 112.152 111.949 112.451 112.87L112.51 113.053C112.644 113.465 113.028 113.744 113.461 113.744H113.653C114.622 113.744 115.025 114.983 114.241 115.553L114.086 115.665C113.735 115.92 113.589 116.372 113.723 116.784L113.782 116.966C114.081 117.887 113.027 118.653 112.243 118.084L112.088 117.971C111.737 117.717 111.263 117.717 110.912 117.971L110.757 118.084C109.973 118.653 108.919 117.887 109.218 116.966L109.277 116.784C109.411 116.372 109.265 115.92 108.914 115.665L108.759 115.553C107.975 114.983 108.378 113.744 109.347 113.744H109.539C109.972 113.744 110.356 113.465 110.49 113.053L110.549 112.87Z" fill="black"/>
<path d="M110.994 98.7623C111.717 98.1169 112.843 98.7729 112.638 99.7197L112.597 99.9071C112.505 100.331 112.697 100.765 113.071 100.983L113.237 101.079C114.074 101.567 113.798 102.841 112.834 102.938L112.643 102.958C112.212 103.001 111.858 103.318 111.767 103.741L111.726 103.928C111.521 104.875 110.224 105.006 109.834 104.12L109.756 103.944C109.582 103.548 109.172 103.309 108.741 103.353L108.55 103.372C107.586 103.469 107.06 102.277 107.783 101.631L107.926 101.504C108.249 101.215 108.349 100.751 108.175 100.355L108.097 100.179C107.707 99.2927 108.679 98.4243 109.516 98.9119L109.682 99.0084C110.056 99.2265 110.528 99.1787 110.851 98.89L110.994 98.7623Z" fill="black"/>
<path d="M105.994 103.762C106.717 103.117 107.843 103.773 107.638 104.72L107.597 104.907C107.505 105.331 107.697 105.765 108.071 105.983L108.237 106.079C109.074 106.567 108.798 107.841 107.834 107.938L107.643 107.958C107.212 108.001 106.858 108.318 106.767 108.741L106.726 108.928C106.521 109.875 105.224 110.006 104.834 109.12L104.756 108.944C104.582 108.548 104.172 108.309 103.741 108.353L103.55 108.372C102.586 108.469 102.06 107.277 102.783 106.631L102.926 106.504C103.249 106.215 103.349 105.751 103.175 105.355L103.097 105.179C102.707 104.293 103.679 103.424 104.516 103.912L104.682 104.008C105.056 104.226 105.528 104.179 105.851 103.89L105.994 103.762Z" fill="black"/>
<path d="M104.42 110.723C104.991 109.941 106.23 110.347 106.227 111.316L106.226 111.508C106.225 111.941 106.503 112.326 106.914 112.461L107.097 112.521C108.017 112.823 108.013 114.126 107.091 114.423L106.908 114.482C106.496 114.614 106.216 114.997 106.215 115.431L106.214 115.622C106.211 116.591 104.97 116.99 104.403 116.205L104.291 116.049C104.037 115.698 103.587 115.55 103.174 115.683L102.992 115.742C102.069 116.038 101.306 114.981 101.878 114.199L101.991 114.045C102.247 113.695 102.248 113.22 101.995 112.869L101.883 112.714C101.315 111.928 102.085 110.876 103.005 111.178L103.187 111.238C103.599 111.373 104.051 111.228 104.306 110.878L104.42 110.723Z" fill="black"/>
<path d="M127.73 92.6228C128.416 91.9394 129.576 92.5337 129.423 93.4902L129.392 93.6795C129.324 94.1073 129.538 94.5306 129.924 94.7282L130.094 94.8156C130.956 95.2574 130.75 96.5443 129.792 96.6936L129.603 96.7232C129.175 96.79 128.839 97.1248 128.77 97.5525L128.739 97.7419C128.586 98.6983 127.298 98.8993 126.86 98.0351L126.773 97.8641C126.577 97.4776 126.155 97.2612 125.727 97.328L125.538 97.3576C124.58 97.5069 123.991 96.3442 124.678 95.6608L124.814 95.5255C125.121 95.2199 125.196 94.7513 125 94.3648L124.914 94.1938C124.476 93.3296 125.4 92.4101 126.262 92.8519L126.432 92.9393C126.818 93.1369 127.287 93.0637 127.594 92.7581L127.73 92.6228Z" fill="black"/>
<path d="M137.73 95.6228C138.416 94.9394 139.576 95.5337 139.423 96.4902L139.392 96.6795C139.324 97.1073 139.538 97.5306 139.924 97.7282L140.094 97.8156C140.956 98.2574 140.75 99.5443 139.792 99.6936L139.603 99.7232C139.175 99.79 138.839 100.125 138.77 100.553L138.739 100.742C138.586 101.698 137.298 101.899 136.86 101.035L136.773 100.864C136.577 100.478 136.155 100.261 135.727 100.328L135.538 100.358C134.58 100.507 133.991 99.3442 134.678 98.6608L134.814 98.5255C135.121 98.2199 135.196 97.7513 135 97.3648L134.914 97.1938C134.476 96.3296 135.4 95.4101 136.262 95.8519L136.432 95.9393C136.818 96.1369 137.287 96.0637 137.594 95.7581L137.73 95.6228Z" fill="black"/>
<path d="M142.563 101.902C142.858 100.979 144.161 100.973 144.465 101.893L144.526 102.075C144.661 102.486 145.047 102.763 145.48 102.761L145.672 102.76C146.64 102.756 147.049 103.993 146.268 104.566L146.114 104.68C145.765 104.936 145.62 105.388 145.756 105.8L145.816 105.982C146.12 106.902 145.069 107.673 144.283 107.107L144.127 106.995C143.775 106.742 143.301 106.745 142.952 107.001L142.797 107.115C142.016 107.688 140.958 106.927 141.253 106.004L141.311 105.822C141.443 105.409 141.294 104.958 140.942 104.705L140.787 104.593C140 104.028 140.397 102.786 141.366 102.781L141.557 102.781C141.99 102.778 142.373 102.498 142.505 102.085L142.563 101.902Z" fill="black"/>
<path d="M147.407 109.976C148.188 109.403 149.246 110.164 148.951 111.087L148.893 111.269C148.761 111.682 148.91 112.133 149.261 112.386L149.417 112.497C150.203 113.063 149.806 114.305 148.838 114.309L148.646 114.31C148.213 114.312 147.83 114.593 147.698 115.006L147.64 115.188C147.345 116.111 146.041 116.117 145.738 115.197L145.678 115.015C145.542 114.604 145.156 114.327 144.723 114.329L144.532 114.33C143.563 114.334 143.154 113.097 143.935 112.523L144.09 112.41C144.439 112.154 144.584 111.702 144.448 111.29L144.388 111.108C144.084 110.188 145.135 109.417 145.921 109.983L146.077 110.095C146.428 110.348 146.903 110.346 147.252 110.089L147.407 109.976Z" fill="black"/>
<path d="M149.85 119.195C150.7 118.73 151.648 119.625 151.233 120.501L151.151 120.674C150.965 121.065 151.053 121.532 151.368 121.829L151.507 121.961C152.212 122.626 151.653 123.804 150.693 123.68L150.502 123.655C150.073 123.6 149.656 123.827 149.471 124.219L149.389 124.392C148.974 125.267 147.681 125.1 147.502 124.148L147.467 123.96C147.387 123.534 147.042 123.208 146.612 123.153L146.422 123.128C145.461 123.004 145.22 121.723 146.071 121.259L146.239 121.167C146.619 120.959 146.823 120.53 146.743 120.104L146.707 119.916C146.528 118.964 147.672 118.339 148.377 119.004L148.516 119.136C148.831 119.433 149.302 119.494 149.682 119.287L149.85 119.195Z" fill="black"/>
<path d="M143.944 117.073C144.911 117.136 145.232 118.399 144.412 118.916L144.25 119.019C143.884 119.25 143.708 119.691 143.814 120.111L143.862 120.296C144.1 121.235 142.998 121.931 142.253 121.311L142.106 121.189C141.772 120.912 141.299 120.881 140.932 121.112L140.77 121.214C139.951 121.731 138.949 120.897 139.308 119.998L139.379 119.82C139.54 119.417 139.423 118.957 139.09 118.68L138.942 118.558C138.197 117.938 138.681 116.728 139.647 116.791L139.839 116.803C140.271 116.832 140.672 116.579 140.833 116.176L140.904 115.998C141.263 115.098 142.563 115.184 142.802 116.123L142.849 116.308C142.956 116.728 143.321 117.032 143.753 117.06L143.944 117.073Z" fill="black"/>
<path d="M141.944 125.073C142.911 125.136 143.232 126.399 142.412 126.916L142.25 127.019C141.884 127.25 141.708 127.691 141.814 128.111L141.862 128.296C142.1 129.235 140.998 129.931 140.253 129.311L140.106 129.189C139.772 128.912 139.299 128.881 138.932 129.112L138.77 129.214C137.951 129.731 136.949 128.897 137.308 127.998L137.379 127.82C137.54 127.417 137.423 126.957 137.09 126.68L136.942 126.558C136.197 125.938 136.681 124.728 137.647 124.791L137.839 124.803C138.271 124.832 138.672 124.579 138.833 124.176L138.904 123.998C139.263 123.098 140.563 123.184 140.802 124.123L140.849 124.308C140.956 124.728 141.321 125.032 141.753 125.06L141.944 125.073Z" fill="black"/>
<path d="M148.944 127.073C149.911 127.136 150.232 128.399 149.412 128.916L149.25 129.019C148.884 129.25 148.708 129.691 148.814 130.111L148.862 130.296C149.1 131.235 147.998 131.931 147.253 131.311L147.106 131.189C146.772 130.912 146.299 130.881 145.932 131.112L145.77 131.214C144.951 131.731 143.949 130.897 144.308 129.998L144.379 129.82C144.54 129.417 144.423 128.957 144.09 128.68L143.942 128.558C143.197 127.938 143.681 126.728 144.647 126.791L144.839 126.803C145.271 126.832 145.672 126.579 145.833 126.176L145.904 125.998C146.263 125.098 147.563 125.184 147.802 126.123L147.849 126.308C147.956 126.728 148.321 127.032 148.753 127.06L148.944 127.073Z" fill="black"/>
</svg>
